<svg xmlns="http://www.w3.org/2000/svg" width="820" height="300" viewBox="0 0 820 300" role="img" aria-label="Followers gained over 30 days, simulated on the default settings"><rect x="0.5" y="0.5" width="819" height="299" rx="10" fill="#f6f8fa" stroke="#d0d7de"/><text x="24" y="31" font-family="-apple-system, BlinkMacSystemFont, 'Segoe UI', sans-serif" font-size="11.5" font-weight="600" letter-spacing="2.5" fill="#656d76">FOLLOWERS GAINED — 30 DAYS ON DEFAULT SETTINGS</text><text x="796" y="31" text-anchor="end" font-family="ui-monospace, 'SF Mono', Menlo, Consolas, monospace" font-size="10.5" fill="#8c959f">RE-SIMULATED NIGHTLY · 2026-09-05</text><line x1="52" y1="262" x2="756" y2="262" stroke="rgba(9,10,12,0.07)"/><text x="44" y="265.5" text-anchor="end" font-family="ui-monospace, 'SF Mono', Menlo, Consolas, monospace" font-size="10" fill="#8c959f">0</text><line x1="52" y1="232" x2="756" y2="232" stroke="rgba(9,10,12,0.07)"/><text x="44" y="235.5" text-anchor="end" font-family="ui-monospace, 'SF Mono', Menlo, Consolas, monospace" font-size="10" fill="#8c959f">50</text><line x1="52" y1="202" x2="756" y2="202" stroke="rgba(9,10,12,0.07)"/><text x="44" y="205.5" text-anchor="end" font-family="ui-monospace, 'SF Mono', Menlo, Consolas, monospace" font-size="10" fill="#8c959f">100</text><line x1="52" y1="172" x2="756" y2="172" stroke="rgba(9,10,12,0.07)"/><text x="44" y="175.5" text-anchor="end" font-family="ui-monospace, 'SF Mono', Menlo, Consolas, monospace" font-size="10" fill="#8c959f">150</text><line x1="52" y1="142" x2="756" y2="142" stroke="rgba(9,10,12,0.07)"/><text x="44" y="145.5" text-anchor="end" font-family="ui-monospace, 'SF Mono', Menlo, Consolas, monospace" font-size="10" fill="#8c959f">200</text><line x1="52" y1="112" x2="756" y2="112" stroke="rgba(9,10,12,0.07)"/><text x="44" y="115.5" text-anchor="end" font-family="ui-monospace, 'SF Mono', Menlo, Consolas, monospace" font-size="10" fill="#8c959f">250</text><line x1="52" y1="82" x2="756" y2="82" stroke="rgba(9,10,12,0.07)"/><text x="44" y="85.5" text-anchor="end" font-family="ui-monospace, 'SF Mono', Menlo, Consolas, monospace" font-size="10" fill="#8c959f">300</text><line x1="52" y1="52" x2="756" y2="52" stroke="rgba(9,10,12,0.07)"/><text x="44" y="55.5" text-anchor="end" font-family="ui-monospace, 'SF Mono', Menlo, Consolas, monospace" font-size="10" fill="#8c959f">350</text><line x1="52" y1="52" x2="52" y2="262" stroke="rgba(9,10,12,0.07)"/><text x="52" y="279" font-family="ui-monospace, 'SF Mono', Menlo, Consolas, monospace" font-size="10" fill="#8c959f">DAY 0</text><line x1="169.33333333333331" y1="52" x2="169.33333333333331" y2="262" stroke="rgba(9,10,12,0.07)"/><text x="169.33333333333331" y="279" text-anchor="middle" font-family="ui-monospace, 'SF Mono', Menlo, Consolas, monospace" font-size="10" fill="#8c959f">5</text><line x1="286.66666666666663" y1="52" x2="286.66666666666663" y2="262" stroke="rgba(9,10,12,0.07)"/><text x="286.66666666666663" y="279" text-anchor="middle" font-family="ui-monospace, 'SF Mono', Menlo, Consolas, monospace" font-size="10" fill="#8c959f">10</text><line x1="404" y1="52" x2="404" y2="262" stroke="rgba(9,10,12,0.07)"/><text x="404" y="279" text-anchor="middle" font-family="ui-monospace, 'SF Mono', Menlo, Consolas, monospace" font-size="10" fill="#8c959f">15</text><line x1="521.3333333333333" y1="52" x2="521.3333333333333" y2="262" stroke="rgba(9,10,12,0.07)"/><text x="521.3333333333333" y="279" text-anchor="middle" font-family="ui-monospace, 'SF Mono', Menlo, Consolas, monospace" font-size="10" fill="#8c959f">20</text><line x1="638.6666666666666" y1="52" x2="638.6666666666666" y2="262" stroke="rgba(9,10,12,0.07)"/><text x="638.6666666666666" y="279" text-anchor="middle" font-family="ui-monospace, 'SF Mono', Menlo, Consolas, monospace" font-size="10" fill="#8c959f">25</text><line x1="756" y1="52" x2="756" y2="262" stroke="rgba(9,10,12,0.07)"/><text x="756" y="279" text-anchor="middle" font-family="ui-monospace, 'SF Mono', Menlo, Consolas, monospace" font-size="10" fill="#8c959f">30</text><polygon points="52.0,262.0 75.5,259.7 98.9,257.1 122.4,255.1 145.9,253.0 169.3,251.5 192.8,246.6 216.3,248.2 239.7,242.5 263.2,239.0 286.7,238.7 310.1,238.2 333.6,234.1 357.1,239.3 380.5,238.9 404.0,232.0 427.5,235.2 450.9,230.8 474.4,229.5 497.9,224.3 521.3,222.7 544.8,226.3 568.3,225.0 591.7,218.9 615.2,220.1 638.7,221.3 662.1,218.4 685.6,217.4 709.1,213.9 732.5,213.7 756.0,211.8 756.0,63.8 732.5,69.9 709.1,77.1 685.6,83.2 662.1,93.7 638.7,92.8 615.2,99.7 591.7,103.1 568.3,113.6 544.8,113.9 521.3,118.3 497.9,145.3 474.4,131.2 450.9,152.0 427.5,150.0 404.0,141.5 380.5,178.0 357.1,162.0 333.6,162.9 310.1,174.3 286.7,197.7 263.2,204.2 239.7,189.0 216.3,212.0 192.8,205.5 169.3,222.6 145.9,224.7 122.4,241.8 98.9,242.4 75.5,253.1 52.0,262.0" fill="rgba(9,10,12,0.06)"/><polyline points="52.0,262.0 75.5,259.7 98.9,257.1 122.4,255.1 145.9,253.0 169.3,251.5 192.8,246.6 216.3,248.2 239.7,242.5 263.2,239.0 286.7,238.7 310.1,238.2 333.6,234.1 357.1,239.3 380.5,238.9 404.0,232.0 427.5,235.2 450.9,230.8 474.4,229.5 497.9,224.3 521.3,222.7 544.8,226.3 568.3,225.0 591.7,218.9 615.2,220.1 638.7,221.3 662.1,218.4 685.6,217.4 709.1,213.9 732.5,213.7 756.0,211.8" fill="none" stroke="#656d76" stroke-width="1" stroke-dasharray="3 4"/><polyline points="52.0,262.0 75.5,253.1 98.9,242.4 122.4,241.8 145.9,224.7 169.3,222.6 192.8,205.5 216.3,212.0 239.7,189.0 263.2,204.2 286.7,197.7 310.1,174.3 333.6,162.9 357.1,162.0 380.5,178.0 404.0,141.5 427.5,150.0 450.9,152.0 474.4,131.2 497.9,145.3 521.3,118.3 544.8,113.9 568.3,113.6 591.7,103.1 615.2,99.7 638.7,92.8 662.1,93.7 685.6,83.2 709.1,77.1 732.5,69.9 756.0,63.8" fill="none" stroke="#656d76" stroke-width="1" stroke-dasharray="3 4"/><polyline points="52.0,262.0 75.5,257.2 98.9,251.0 122.4,245.6 145.9,244.7 169.3,238.1 192.8,235.9 216.3,227.5 239.7,232.6 263.2,223.3 286.7,218.1 310.1,210.4 333.6,215.3 357.1,205.7 380.5,207.9 404.0,206.6 427.5,193.9 450.9,187.8 474.4,201.7 497.9,188.2 521.3,194.5 544.8,184.6 568.3,174.0 591.7,171.1 615.2,177.2 638.7,168.4 662.1,171.5 685.6,167.1 709.1,159.7 732.5,157.3 756.0,154.9" fill="none" stroke="#1f2328" stroke-width="2"/><circle cx="756" cy="154.8748" r="3.5" fill="#1f2328"/><text x="766" y="159.3748" font-family="-apple-system, BlinkMacSystemFont, 'Segoe UI', sans-serif" font-size="13" font-weight="700" fill="#1f2328">+179</text><text x="764" y="67.33799999999994" font-family="ui-monospace, 'SF Mono', Menlo, Consolas, monospace" font-size="10" fill="#656d76">+330 best</text><text x="764" y="215.2728" font-family="ui-monospace, 'SF Mono', Menlo, Consolas, monospace" font-size="10" fill="#656d76">+84 worst</text></svg>
